<mxfile host="65bd71144e">
    <diagram name="Page-1" id="oYOppsWYt1pmjS8Wi_WP">
        <mxGraphModel dx="973" dy="488" grid="1" gridSize="10" guides="0" tooltips="1" connect="0" arrows="0" fold="1" page="0" pageScale="1" pageWidth="850" pageHeight="1100" background="none" math="0" shadow="0">
            <root>
                <mxCell id="0"/>
                <mxCell id="1" parent="0"/>
                <mxCell id="kMzkdgJ_VAqO0c0qWMnR-119" value="" style="endArrow=none;html=1;rounded=0;strokeWidth=3;" parent="1" edge="1">
                    <mxGeometry width="50" height="50" relative="1" as="geometry">
                        <mxPoint x="920" y="601" as="sourcePoint"/>
                        <mxPoint x="920" y="490" as="targetPoint"/>
                    </mxGeometry>
                </mxCell>
                <mxCell id="kMzkdgJ_VAqO0c0qWMnR-120" value="" style="endArrow=none;html=1;rounded=0;strokeWidth=3;" parent="1" edge="1">
                    <mxGeometry width="50" height="50" relative="1" as="geometry">
                        <mxPoint x="920" y="500" as="sourcePoint"/>
                        <mxPoint x="940" y="500" as="targetPoint"/>
                    </mxGeometry>
                </mxCell>
                <mxCell id="kMzkdgJ_VAqO0c0qWMnR-121" value="" style="rounded=1;whiteSpace=wrap;html=1;strokeWidth=3;fillColor=none;" parent="1" vertex="1">
                    <mxGeometry x="940" y="490" width="20" height="20" as="geometry"/>
                </mxCell>
                <mxCell id="kMzkdgJ_VAqO0c0qWMnR-122" value="" style="endArrow=none;html=1;rounded=0;strokeWidth=3;" parent="1" edge="1">
                    <mxGeometry width="50" height="50" relative="1" as="geometry">
                        <mxPoint x="920" y="500" as="sourcePoint"/>
                        <mxPoint x="920" y="500" as="targetPoint"/>
                    </mxGeometry>
                </mxCell>
                <mxCell id="kMzkdgJ_VAqO0c0qWMnR-123" value="" style="rounded=1;whiteSpace=wrap;html=1;strokeWidth=3;fillColor=none;" parent="1" vertex="1">
                    <mxGeometry x="910" y="470" width="20" height="20" as="geometry"/>
                </mxCell>
                <mxCell id="kMzkdgJ_VAqO0c0qWMnR-126" value="" style="endArrow=none;html=1;rounded=0;entryX=0.5;entryY=1;entryDx=0;entryDy=0;strokeWidth=3;" parent="1" edge="1">
                    <mxGeometry width="50" height="50" relative="1" as="geometry">
                        <mxPoint x="950" y="581" as="sourcePoint"/>
                        <mxPoint x="950" y="510" as="targetPoint"/>
                    </mxGeometry>
                </mxCell>
                <mxCell id="kMzkdgJ_VAqO0c0qWMnR-127" value="" style="endArrow=none;html=1;rounded=0;strokeWidth=3;" parent="1" edge="1">
                    <mxGeometry width="50" height="50" relative="1" as="geometry">
                        <mxPoint x="970" y="520" as="sourcePoint"/>
                        <mxPoint x="950" y="520" as="targetPoint"/>
                    </mxGeometry>
                </mxCell>
                <mxCell id="kMzkdgJ_VAqO0c0qWMnR-128" value="" style="rounded=1;whiteSpace=wrap;html=1;strokeWidth=3;fillColor=none;" parent="1" vertex="1">
                    <mxGeometry x="970" y="510" width="20" height="20" as="geometry"/>
                </mxCell>
                <mxCell id="kMzkdgJ_VAqO0c0qWMnR-129" value="" style="rounded=1;whiteSpace=wrap;html=1;strokeWidth=3;fillColor=none;" parent="1" vertex="1">
                    <mxGeometry x="970" y="540" width="20" height="20" as="geometry"/>
                </mxCell>
                <mxCell id="kMzkdgJ_VAqO0c0qWMnR-130" value="" style="endArrow=none;html=1;rounded=0;entryX=0;entryY=0.5;entryDx=0;entryDy=0;strokeWidth=3;" parent="1" target="kMzkdgJ_VAqO0c0qWMnR-129" edge="1">
                    <mxGeometry width="50" height="50" relative="1" as="geometry">
                        <mxPoint x="950" y="550" as="sourcePoint"/>
                        <mxPoint x="1030" y="520" as="targetPoint"/>
                    </mxGeometry>
                </mxCell>
                <mxCell id="kMzkdgJ_VAqO0c0qWMnR-131" value="" style="rounded=1;whiteSpace=wrap;html=1;strokeWidth=3;fillColor=none;" parent="1" vertex="1">
                    <mxGeometry x="970" y="570" width="20" height="20" as="geometry"/>
                </mxCell>
                <mxCell id="kMzkdgJ_VAqO0c0qWMnR-132" value="" style="endArrow=none;html=1;rounded=0;entryX=0;entryY=0.5;entryDx=0;entryDy=0;strokeWidth=3;" parent="1" target="kMzkdgJ_VAqO0c0qWMnR-131" edge="1">
                    <mxGeometry width="50" height="50" relative="1" as="geometry">
                        <mxPoint x="949" y="580" as="sourcePoint"/>
                        <mxPoint x="1030" y="550" as="targetPoint"/>
                    </mxGeometry>
                </mxCell>
                <mxCell id="kMzkdgJ_VAqO0c0qWMnR-136" value="" style="rounded=1;whiteSpace=wrap;html=1;strokeWidth=3;fillColor=none;" parent="1" vertex="1">
                    <mxGeometry x="940" y="590" width="20" height="20" as="geometry"/>
                </mxCell>
                <mxCell id="kMzkdgJ_VAqO0c0qWMnR-137" value="" style="endArrow=none;html=1;rounded=0;strokeWidth=3;" parent="1" edge="1">
                    <mxGeometry width="50" height="50" relative="1" as="geometry">
                        <mxPoint x="919" y="600" as="sourcePoint"/>
                        <mxPoint x="940" y="600" as="targetPoint"/>
                    </mxGeometry>
                </mxCell>
            </root>
        </mxGraphModel>
    </diagram>
</mxfile>